#!OML:ASF I:\Actors\actors\Patient Classification 1\Patient 1\Session 1\Subject1.ASF
:FULLY-SPECIFIED
:DEGREES
757
root 0.847503 17.4432 8.88132 6.93453 -1.31929 -8.42089
lowerback -1.34764 1.55135 6.22777
upperback -8.70208 2.43736 2.02664
thorax -8.25353 0.841506 -1.47108
lowerneck -14.5582 -4.94806 -1.59334
upperneck 24.6027 -8.08889 5.33859
head 10.597 -3.24266 1.07613
rclavicle 1.70458e-014 -3.97569e-016
rhumerus -29.6673 20.6908 -94.5165
rradius 103.147
rwrist -35.0079
rhand 11.707 -68.6195
rfingers 7.12502
rthumb 36.7435 -265.25
lclavicle 1.70458e-014 -3.97569e-016
lhumerus -50.8016 23.5052 68.7609
lradius 90.9911
lwrist 63.5327
lhand -28.8101 13.8127
lfingers 7.12502
lthumb -2.1683 43.7814
rfemur -2.84642 23.1381 24.4452
rtibia 4.19285
rfoot -12.3619 -25.8679
rtoes 1.28357
lfemur 4.39266 -36.8855 -11.3318
ltibia -3.28957
lfoot -12.8246 44.3039
ltoes 1.80412
758
root 0.851493 17.4459 8.85389 6.99888 -1.98546 -8.33108
lowerback -0.656823 1.79585 6.41765
upperback -8.96039 2.83536 1.83248
thorax -8.90396 0.989824 -1.82826
lowerneck -14.3361 -4.9778 -1.525
upperneck 24.8782 -8.17455 5.3486
head 10.6566 -3.2723 1.06152
rclavicle 3.13086e-015 -9.34288e-015
rhumerus -26.0206 21.8038 -93.6803
rradius 101.866
rwrist -35.1901
rhand 12.419 -68.6285
rfingers 7.12502
rthumb 37.4169 -265.416
lclavicle 3.13086e-015 -9.34288e-015
lhumerus -50.678 22.5807 68.8038
lradius 90.9949
lwrist 63.5205
lhand -28.5124 14.0132
lfingers 7.12502
lthumb -1.88083 43.9847
rfemur -3.2012 23.1455 24.175
rtibia 4.34976
rfoot -12.0874 -25.2829
rtoes 0.791309
lfemur 4.32297 -36.4855 -11.4419
ltibia -3.17382
lfoot -13.1871 44.4892
ltoes 2.59116
759
root 0.855399 17.451 8.82539 7.0872 -2.5766 -8.18626
lowerback -0.51491 1.94473 6.29168
upperback -8.83114 3.03479 1.84412
thorax -8.83236 1.10189 -1.7626
lowerneck -14.4866 -4.94769 -1.44173
upperneck 24.9852 -8.09798 5.12093
head 10.707 -3.25015 0.973533
rclavicle 4.82053e-015 1.76918e-014
rhumerus -21.3994 23.1869 -92.3025
rradius 100.248
rwrist -35.8901
rhand 12.5127 -68.6087
rfingers 7.12502
rthumb 37.5054 -265.459
lclavicle 4.82053e-015 1.76918e-014
lhumerus -50 22.3315 69.1946
lradius 91.0234
lwrist 63.5945
lhand -28.2377 14.1554
lfingers 7.12502
lthumb -1.61545 44.1291
rfemur -3.54639 23.1749 23.8387
rtibia 4.42021
rfoot -11.7633 -24.8063
rtoes 0.365542
lfemur 4.11855 -35.9897 -11.5307
ltibia -3.00554
lfoot -13.4628 44.5053
ltoes 2.95326
760
root 0.858075 17.4555 8.79544 7.19493 -3.0818 -8.14633
lowerback -0.404059 2.07291 6.31047
upperback -8.67277 3.20916 1.86741
thorax -8.70874 1.19328 -1.76156
lowerneck -14.4753 -4.95601 -1.47032
upperneck 24.8117 -8.07648 5.08025
head 10.6388 -3.25269 0.967583
rclavicle 8.79622e-015 3.49861e-014
rhumerus -16.6112 24.4534 -90.7955
rradius 98.3818
rwrist -36.6755
rhand 12.1757 -68.684
rfingers 7.12502
rthumb 37.1869 -265.3
lclavicle 8.79622e-015 3.49861e-014
lhumerus -49.2753 22.0955 69.6118
lradius 91.1368
lwrist 63.7086
lhand -28.2523 14.0414
lfingers 7.12502
lthumb -1.6296 44.0149
rfemur -3.92709 23.2513 23.6336
rtibia 4.53898
rfoot -11.5183 -24.4635
rtoes 0.0512933
lfemur 3.7635 -35.3376 -11.3929
ltibia -2.76535
lfoot -13.2809 44.3211
ltoes 2.29721
761
root 0.861087 17.4594 8.76497 7.31752 -3.50543 -8.11925
lowerback 0.0426738 2.26306 6.56993
upperback -8.73336 3.50833 1.69784
thorax -8.99644 1.3018 -2.12376
lowerneck -14.3187 -4.98552 -1.39817
upperneck 24.8247 -8.14646 5.11401
head 10.6146 -3.27705 0.961913
rclavicle 7.60351e-015 -2.82274e-014
rhumerus -12.5001 24.9134 -89.6644
rradius 96.4117
rwrist -36.7467
rhand 12.4269 -69.0362
rfingers 7.12502
rthumb 37.4243 -265.01
lclavicle 7.60351e-015 -2.82274e-014
lhumerus -48.7539 21.4164 69.87
lradius 91.2988
lwrist 63.8621
lhand -28.1821 13.787
lfingers 7.12502
lthumb -1.56178 43.761
rfemur -4.28544 23.3135 23.4441
rtibia 4.592
rfoot -11.2929 -24.1716
rtoes -0.223484
lfemur 3.39618 -34.8817 -11.2617
ltibia -2.50469
lfoot -13.0806 44.2529
ltoes 1.78218
762
root 0.864389 17.4651 8.73189 7.4577 -3.846 -8.03085
lowerback 0.505809 2.44497 6.77477
upperback -8.77346 3.79353 1.49203
thorax -9.26886 1.40529 -2.49797
lowerneck -14.2391 -5.0557 -1.29651
upperneck 24.7958 -8.26546 5.10084
head 10.5881 -3.32604 0.926157
rclavicle -5.31749e-015 1.76918e-014
rhumerus -9.04485 24.6348 -88.9861
rradius 94.4511
rwrist -35.8663
rhand 13.3459 -69.3071
rfingers 7.12502
rthumb 38.2925 -264.974
lclavicle -5.31749e-015 1.76918e-014
lhumerus -48.0524 20.8148 70.2053
lradius 91.4282
lwrist 63.8376
lhand -28.0154 13.6338
lfingers 7.12502
lthumb -1.40076 43.6089
rfemur -4.62943 23.3549 23.1722
rtibia 4.56456
rfoot -11.0592 -23.8936
rtoes -0.285248
lfemur 2.97461 -34.5508 -11.1792
ltibia -2.24514
lfoot -13.0681 44.227
ltoes 1.76621
763
root 0.865686 17.4716 8.69484 7.58792 -4.12772 -7.91968
lowerback 0.475109 2.5297 6.70054
upperback -8.37731 3.877 1.50087
thorax -8.80359 1.4767 -2.4432
lowerneck -14.3848 -5.05035 -1.38191
upperneck 24.2959 -8.2065 5.148
head 10.4368 -3.31103 0.962975
rclavicle -1.63997e-015 2.94201e-014
rhumerus -4.13653 25.3541 -87.3345
rradius 91.8046
rwrist -35.3181
rhand 13.5398 -68.8547
rfingers 7.12502
rthumb 38.4755 -265.477
lclavicle -1.63997e-015 2.94201e-014
lhumerus -46.7042 20.9609 70.9148
lradius 91.4715
lwrist 63.4723
lhand -27.7912 13.6674
lfingers 7.12502
lthumb -1.18427 43.6438
rfemur -4.98965 23.4575 22.8869
rtibia 4.59463
rfoot -10.9091 -23.6997
rtoes 0.00509828
lfemur 2.46544 -34.0564 -11.0411
ltibia -1.97563
lfoot -12.9569 44.0268
ltoes 1.59829
764
root 0.865567 17.4758 8.65698 7.69057 -4.313 -7.85185
lowerback 0.904268 2.64006 6.76706
upperback -8.25406 4.05552 1.41692
thorax -8.89466 1.55404 -2.60136
lowerneck -14.39 -5.12065 -1.47717
upperneck 24.1075 -8.28938 5.23718
head 10.381 -3.35178 0.999203
rclavicle -1.50579e-014 2.22639e-014
rhumerus 0.129961 25.7312 -85.8774
rradius 89.139
rwrist -34.6751
rhand 13.4058 -68.4823
rfingers 7.12502
rthumb 38.349 -265.814
lclavicle -1.50579e-014 2.22639e-014
lhumerus -45.8264 20.6793 71.5116
lradius 91.5869
lwrist 63.0652
lhand -27.5519 13.5043
lfingers 7.12502
lthumb -0.953123 43.482
rfemur -5.29036 23.5962 22.6864
rtibia 4.59327
rfoot -10.7722 -23.647
rtoes 0.0899
lfemur 1.94633 -33.4724 -10.8293
ltibia -1.70857
lfoot -12.8623 43.6789
ltoes 1.49172
765
root 0.864985 17.4788 8.61957 7.77691 -4.36442 -7.85734
lowerback 1.27526 2.69803 6.87196
upperback -8.0851 4.16125 1.3735
thorax -8.90769 1.59842 -2.72944
lowerneck -14.4687 -5.14335 -1.41171
upperneck 24.0395 -8.32789 5.22566
head 10.3696 -3.36427 0.977341
rclavicle 7.03201e-015 1.39149e-015
rhumerus 4.29712 26.031 -84.4042
rradius 86.3479
rwrist -34.2347
rhand 13.2764 -68.236
rfingers 7.12502
rthumb 38.2268 -266.027
lclavicle 7.03201e-015 1.39149e-015
lhumerus -45.0254 20.3336 72.127
lradius 91.7948
lwrist 62.849
lhand -27.4564 12.9103
lfingers 7.12502
lthumb -0.860911 42.8883
rfemur -5.52378 23.6988 22.5986
rtibia 4.53703
rfoot -10.61 -23.7005
rtoes -0.122708
lfemur 1.42876 -32.9177 -10.523
ltibia -1.45971
lfoot -12.6919 43.2355
ltoes 1.30053
766
root 0.862876 17.4824 8.5816 7.8365 -4.34966 -7.93975
lowerback 1.66716 2.7483 7.04914
upperback -7.87875 4.26107 1.32328
thorax -8.88737 1.63648 -2.90503
lowerneck -14.4718 -5.17259 -1.35343
upperneck 23.8148 -8.3897 5.32203
head 10.2937 -3.38164 0.99391
rclavicle -4.04278e-014 -1.45113e-014
rhumerus 8.20103 26.0455 -83.0513
rradius 83.4455
rwrist -33.7766
rhand 13.5548 -67.8753
rfingers 7.12502
rthumb 38.4896 -266.46
lclavicle -4.04278e-014 -1.45113e-014
lhumerus -44.1406 19.9196 72.7375
lradius 91.9678
lwrist 62.6847
lhand -27.4135 12.375
lfingers 7.12502
lthumb -0.819446 42.3532
rfemur -5.74064 23.7245 22.6212
rtibia 4.53872
rfoot -10.4994 -23.7214
rtoes -0.149445
lfemur 0.928445 -32.4022 -10.1246
ltibia -1.20904
lfoot -12.3839 42.7636
ltoes 0.874068
767
root 0.858592 17.4862 8.54253 7.87677 -4.29172 -8.0923
lowerback 2.09752 2.81538 7.30982
upperback -7.63756 4.38946 1.24238
thorax -8.84055 1.68337 -3.16336
lowerneck -14.6517 -5.27114 -1.69931
upperneck 23.7423 -8.58659 5.89356
head 10.3565 -3.43289 1.21965
rclavicle -1.96548e-014 4.77083e-015
rhumerus 11.7644 25.6777 -81.907
rradius 80.4987
rwrist -33.1883
rhand 14.1472 -67.4414
rfingers 7.12502
rthumb 39.0483 -267.052
lclavicle -1.96548e-014 4.77083e-015
lhumerus -43.1181 19.4871 73.3916
lradius 92.061
lwrist 62.4454
lhand -27.5104 12.1777
lfingers 7.12502
lthumb -0.913042 42.1555
rfemur -5.96391 23.6839 22.7384
rtibia 4.59718
rfoot -10.4413 -23.692
rtoes 0.123422
lfemur 0.442513 -31.9035 -9.63784
ltibia -0.959595
lfoot -12.1038 42.2804
ltoes 0.392113
